<?xml version="1.0" encoding="UTF-8"?><svg id="Layer_1" xmlns="http://www.w3.org/2000/svg" viewBox="0 0 480.973 127.87"><path fill="#1a1a1a" stroke="#1a1a1a" stroke-width="1" stroke-linejoin="round" d="M161.924,26.356c-15.462,2.956-27.403,16.065-28.882,31.737-2.028,21.488,14.966,39.517,35.873,39.517,3.226,0,6.366-.412,9.346-1.186,2.312-.601,3.882-2.756,3.882-5.145v-.802c0-3.571-3.407-6.031-6.857-5.106-2.034.545-4.172.835-6.372.835-13.381,0-24.481-10.948-24.481-24.633,0-13.533,11.1-24.481,24.481-24.481s24.278,10.745,24.481,24.126v30.462c0,13.533-9.884,23.265-23.113,24.481-5.17.608-12.773.608-20.376-4.258-2.889-1.368-6.234.152-7.603,2.889-1.064,2.889,0,6.234,3.041,7.603,6.843,4.258,13.989,5.474,20.528,5.474,1.977,0,3.801,0,5.474-.152,19.463-1.977,33.604-17.182,33.604-36.037v-30.107c0-22.057-20.258-39.571-43.028-35.217Z"/><path fill="#1a1a1a" stroke="#1a1a1a" stroke-width="1" stroke-linejoin="round" d="M258.267,25.238c-20.363-.386-36.74,16.843-36.74,37.21v59.796c0,3.193,2.433,5.626,5.322,5.626s5.841-2.433,5.841-5.626v-35.277l.241-25.292v-.405c0-.634.025-1.242.076-1.85.938-12.671,11.658-22.783,24.557-22.783,15.334,0,27.232,13.936,24.142,29.615-1.928,9.784-9.813,17.632-19.627,19.397-4.03.725-7.951.456-11.534-.618-3.592-1.077-7.173,1.764-7.173,5.514h0c0,2.498,1.605,4.764,4.002,5.466,4.072,1.193,8.441,1.677,12.933,1.348,17.342-1.269,31.613-15.265,33.277-32.573,2.026-21.081-14.401-39.15-35.317-39.547Z"/><path fill="#1a1a1a" stroke="#1a1a1a" stroke-width="1" stroke-linejoin="round" d="M305.368,8.365c0-4.106,3.193-7.145,7.298-7.145s7.298,3.039,7.298,7.145-3.193,7.603-7.298,7.603-7.298-3.497-7.298-7.603ZM306.887,91.539V31.174c0-3.193,2.433-5.779,5.625-5.779s5.93,2.586,5.93,5.779v60.365c0,3.193-2.735,5.776-5.93,5.776s-5.625-2.584-5.625-5.776Z"/><path fill="#1a1a1a" stroke="#1a1a1a" stroke-width="1" stroke-linejoin="round" d="M346.094,91.69c0,1.572-.559,2.903-1.673,3.992-1.116,1.089-2.46,1.633-4.029,1.633s-2.915-.544-4.029-1.633c-1.116-1.089-1.673-2.42-1.673-3.992V5.625c0-1.621.557-2.965,1.673-4.029,1.114-1.064,2.458-1.596,4.029-1.596s2.913.532,4.029,1.596c1.114,1.064,1.673,2.408,1.673,4.029v86.064Z"/><path fill="#1a1a1a" stroke="#1a1a1a" stroke-width="1" stroke-linejoin="round" d="M358.84,61.736c0-19.918,16.116-36.188,36.037-36.188s36.188,16.27,36.188,36.188-16.27,36.037-36.188,36.037-36.037-16.119-36.037-36.037ZM419.66,61.736c0-13.686-11.1-24.784-24.784-24.784-13.533,0-24.633,11.097-24.633,24.784,0,13.533,11.1,24.633,24.633,24.633,13.684,0,24.784-11.1,24.784-24.633Z"/><path fill="#1a1a1a" stroke="#1a1a1a" stroke-width="1" stroke-linejoin="round" d="M85.442,25.26c-19.363.619-34.697,16.338-34.697,35.71,0,18.7,13.531,34.058,33.143,35.882,13.078,1.37,22.641-1.633,30.562-8.969,2.925-2.463,4.104-4.564,2.737-7.147-1.216-2.737-5.183-3.686-7.147-1.975-8.665,7.6-17.637,8.057-24.628,7.298-13.725-1.49-24.318-12.603-23.338-26.761.904-13.051,11.305-23.566,24.554-23.566,12.465,0,22.196,9.123,23.412,21.135h-32.474c-2.339,0-4.236,1.896-4.236,4.236s1.904,4.242,4.248,4.236l38.392-.11c.304,0,.608,0,.912-.153,2.586-.455,4.712-2.734,4.712-5.474,0-19.155-15.506-34.359-34.967-34.359-.397,0-.792.006-1.186.019Z"/><path fill="#1a1a1a" stroke="#1a1a1a" stroke-width="1" stroke-linejoin="round" d="M11.559,64.622v27.852c0,1.465-.767,3.6-1.831,4.607-1.074,1.017-2.39,1.524-3.948,1.524-1.516,0-2.821-.51-3.917-1.533C.618,95.91,0,94.211,0,92.508v-26.72c0-9.573,3.025-19.055,9.241-26.336,3.925-4.597,8.693-8.097,14.3-10.506,4.546-1.953,9.413-2.93,14.602-2.93h.463c1.899,0,3.377.554,4.431,1.658,1.052,1.104,1.579,2.48,1.579,4.123s-.591,3.005-1.772,4.084c-1.183,1.079-2.595,1.619-4.238,1.619h-.463c-3.648,0-7.077.705-10.287,2.119-3.211,1.413-6.024,3.326-8.437,5.739s-4.329,5.267-5.742,8.553c-1.413,3.289-2.119,6.781-2.119,10.481v.23Z"/><path fill="#1a1a1a" stroke="#1a1a1a" stroke-width="1" stroke-linejoin="round" d="M475.608,88.287h-2.116c-12.142,0-21.037-8.328-21.037-23.153v-29.87h19.623c2.683,0,4.942-2.26,4.942-5.081,0-2.683-2.26-4.942-4.942-4.942h-19.623V5.554c0-2.965-2.401-5.366-5.366-5.366s-5.366,2.401-5.366,5.366v19.687h-7.027c-2.683,0-4.942,2.26-4.942,4.942,0,2.821,2.26,5.081,4.942,5.081h7.027v29.87c0,24.284,16.802,33.884,31.768,33.884h2.116c2.965,0,5.366-2.401,5.366-5.366s-2.401-5.366-5.366-5.366Z"/></svg>